<?xml version="1.0" encoding="UTF-8" standalone="no"?>
<!-- Created with Inkscape (http://www.inkscape.org/) -->

<svg
   width="123.277mm"
   height="140.39737mm"
   viewBox="0 0 123.277 140.39737"
   version="1.1"
   id="svg5"
   xml:space="preserve"
   inkscape:export-filename="cedule_nahoru.pdf"
   inkscape:export-xdpi="96"
   inkscape:export-ydpi="96"
   inkscape:version="1.3.2 (091e20ef0f, 2023-11-25)"
   sodipodi:docname="logo.svg"
   xmlns:inkscape="http://www.inkscape.org/namespaces/inkscape"
   xmlns:sodipodi="http://sodipodi.sourceforge.net/DTD/sodipodi-0.dtd"
   xmlns="http://www.w3.org/2000/svg"
   xmlns:svg="http://www.w3.org/2000/svg"><sodipodi:namedview
     id="namedview7"
     pagecolor="#ffffff"
     bordercolor="#ffffff"
     borderopacity="1"
     inkscape:showpageshadow="0"
     inkscape:pageopacity="0"
     inkscape:pagecheckerboard="0"
     inkscape:deskcolor="#636363"
     inkscape:document-units="mm"
     showgrid="false"
     inkscape:zoom="0.74564394"
     inkscape:cx="-132.77115"
     inkscape:cy="353.38583"
     inkscape:window-width="1920"
     inkscape:window-height="1011"
     inkscape:window-x="0"
     inkscape:window-y="32"
     inkscape:window-maximized="1"
     inkscape:current-layer="layer1" /><defs
     id="defs2" /><g
     inkscape:label="Vrstva 1"
     inkscape:groupmode="layer"
     id="layer1"
     transform="translate(-142.53318,-25)"><g
       id="g2632"
       transform="matrix(0.74040422,0,0,0.74040422,91.436231,-73.422408)"><path
         style="fill:#422006;fill-opacity:1;stroke-width:0.264583"
         d="m 142.57316,318.97 c -17.58058,-2.05149 -32.37331,-7.97693 -45.074944,-18.05541 -2.702408,-2.1443 -7.775462,-7.07943 -9.998669,-9.72683 -6.38747,-7.6062 -11.331325,-17.23129 -13.454215,-26.19375 -1.677342,-7.08144 -1.586759,-3.72071 -1.586759,-58.86979 v -50.13854 l 5.914435,-2.96848 c 15.206497,-7.6322 33.856972,-13.22747 51.764732,-15.52978 0.58208,-0.0748 2.01083,-0.26015 3.175,-0.41183 8.21586,-1.07038 21.75215,-1.36998 30.57282,-0.67665 23.3857,1.83817 45.42556,7.86813 64.14801,17.55049 l 3.96875,2.05245 0.0781,48.54294 c 0.0828,51.43077 0.0805,51.54359 -1.1772,58.06794 -3.08282,15.99251 -13.18467,30.87597 -28.1486,41.47248 -10.30584,7.29794 -23.94662,12.51661 -37.95648,14.52133 -4.93123,0.70563 -17.52734,0.9116 -22.225,0.36343 z m 21.29895,-5.52957 c 15.06104,-2.17046 28.21401,-7.59856 39.29063,-16.21485 11.24665,-8.74857 19.84996,-21.81285 22.87093,-34.72993 1.49911,-6.40993 1.43545,-4.11585 1.53191,-55.20062 l 0.089,-47.11564 -5.36675,-2.6697 c -7.47501,-3.71845 -12.11451,-5.63016 -19.65424,-8.09853 -9.82416,-3.21626 -21.17263,-5.75341 -30.95625,-6.92083 -0.7276,-0.0868 -2.21588,-0.26865 -3.30729,-0.40406 -6.33284,-0.78573 -18.65744,-1.02482 -26.32604,-0.51071 -16.49726,1.106 -35.1465,5.32061 -49.477085,11.18151 -5.871228,2.40121 -12.21315,5.4078 -14.882811,7.05568 l -0.859896,0.53078 v 44.76965 c 0,29.18079 0.09817,46.06466 0.28194,48.48878 1.221509,16.11313 9.37856,31.38608 22.619308,42.35153 11.709474,9.69731 25.983494,15.60871 42.778064,17.71596 4.1298,0.51817 17.15223,0.37861 21.3686,-0.22902 z m -16.13958,-4.54309 c -0.50932,-0.0574 -2.35479,-0.23652 -4.10104,-0.39805 -1.74625,-0.16153 -5.19906,-0.69909 -7.67292,-1.19458 -7.46602,-1.49538 -12.36603,-3.16567 -19.31458,-6.58385 -7.51901,-3.69881 -12.92103,-7.62243 -18.682584,-13.56961 -8.564272,-8.84021 -13.379506,-17.91347 -15.760838,-29.69786 -0.417013,-2.06365 -0.461426,-5.99873 -0.539017,-47.75729 l -0.08456,-45.50833 0.553667,-0.34525 c 1.491152,-0.92981 8.805118,-4.43316 12.214639,-5.85074 19.789303,-8.22783 43.165723,-12.41477 63.811623,-11.42928 21.65289,1.03356 41.80032,6.12494 60.02092,15.16768 l 4.69635,2.33076 -0.005,44.38112 c -0.005,46.8224 0.005,46.40317 -1.18595,51.58313 -2.28227,9.93058 -7.27871,18.89995 -15.01412,26.95268 -3.75348,3.90744 -6.51927,6.22193 -11.05275,9.24925 -9.86275,6.58603 -20.79207,10.53879 -33.61949,12.15902 -3.15506,0.39851 -12.34275,0.72778 -14.2645,0.5112 z m 8.28171,-26.81149 c 0.22119,-0.22119 0.20378,-0.51926 -0.0675,-1.15439 -0.20109,-0.47091 -0.40351,-1.6301 -0.44981,-2.57599 -0.0463,-0.94589 -0.21891,-3.71993 -0.38356,-6.16454 -0.16466,-2.44461 -0.23363,-4.51049 -0.15329,-4.59084 0.39942,-0.39941 3.35573,6.90306 3.35573,8.28908 0,0.3666 0.17244,1.04172 0.38318,1.50027 0.21075,0.45856 0.41911,1.19093 0.46302,1.62749 0.0777,0.77244 0.12167,0.79591 1.63772,0.87419 2.17854,0.11248 2.4556,-0.0262 1.88382,-0.94303 -0.24865,-0.3987 -0.7234,-0.96304 -1.05501,-1.25408 -0.3316,-0.29104 -0.6633,-0.88635 -0.7371,-1.32291 -0.0738,-0.43657 -0.8688,-2.75829 -1.76666,-5.15938 -1.40148,-3.74787 -1.6641,-4.73444 -1.85595,-6.97203 -0.19928,-2.3244 -0.15704,-2.85401 0.39042,-4.89479 0.69173,-2.57856 2.38395,-7.42889 2.70324,-7.74818 0.1154,-0.11541 0.74391,-0.0166 1.39668,0.21955 0.65277,0.23616 2.07982,0.44263 3.17123,0.45882 2.32553,0.0345 3.0648,0.37006 3.31391,1.50428 0.32232,1.46753 0.23229,6.92663 -0.14505,8.79429 -0.30922,1.53056 -0.47039,1.85257 -1.03458,2.06708 -0.87087,0.3311 -1.06699,0.67297 -1.0719,1.86853 -0.003,0.76166 0.14605,1.08443 0.65548,1.41823 1.0485,0.687 1.86566,0.31729 2.3335,-1.05573 0.21881,-0.64217 0.62954,-1.39929 0.91275,-1.6825 0.43879,-0.43878 0.5694,-1.21495 0.88346,-5.24988 0.52403,-6.73268 0.49433,-10.12495 -0.0966,-11.02677 -0.60489,-0.92317 -1.42423,-1.43657 -2.576,-1.61411 -1.58579,-0.24444 -3.05062,-0.87132 -2.94299,-1.25947 0.0548,-0.19779 0.15804,-1.19543 0.22932,-2.21698 0.14939,-2.14079 -0.39548,-4.67134 -1.3647,-6.33819 -0.50019,-0.86021 -0.65485,-1.62417 -0.80479,-3.97527 -0.44543,-6.98475 -2.14959,-11.34743 -5.87701,-15.04523 -0.81538,-0.80891 -2.21687,-1.85148 -3.11443,-2.31685 -1.36208,-0.7062 -1.70859,-1.03146 -2.09553,-1.96699 -0.42541,-1.02855 -1.44746,-2.28722 -1.52544,-1.87861 -0.2818,1.47657 -0.47303,1.65388 -2.2397,2.07658 -1.53939,0.36832 -1.90825,0.37231 -3.20154,0.0346 -0.80394,-0.20994 -1.5171,-0.32631 -1.58479,-0.25862 -0.0677,0.0677 0.31479,0.78259 0.84999,1.58865 l 0.97308,1.46557 -0.41459,2.03299 c -0.32453,1.59136 -0.35359,2.31741 -0.1338,3.34227 0.15978,0.74503 0.21021,2.29816 0.11701,3.60392 -0.24652,3.45385 -0.24826,3.60055 -0.052,4.3824 0.24917,0.99278 1.59742,1.55685 2.87682,1.20359 1.18018,-0.32587 1.42509,-0.63021 1.7794,-2.2112 0.37859,-1.68935 0.59402,-2.04617 1.5856,-2.62628 l 0.83381,-0.48781 -0.17505,1.01698 c -0.38999,2.26566 -0.88516,4.49702 -1.14956,5.1802 -0.259,0.66925 -0.36521,0.71279 -1.41259,0.57919 -0.62289,-0.0795 -1.88849,-0.0362 -2.81243,0.096 -1.23616,0.17698 -1.93503,0.14936 -2.64583,-0.10455 -0.53127,-0.18979 -1.7139,-0.35029 -2.62808,-0.35668 -2.86824,-0.02 -4.68532,1.13327 -5.58193,3.54289 -0.91075,2.44763 -0.94784,5.08853 -0.15446,10.99758 0.91571,6.82013 0.89344,9.22822 -0.12371,13.37523 -0.82973,3.38289 -1.25174,6.50044 -0.94674,6.99395 0.1327,0.21471 0.33089,0.1727 0.68127,-0.14439 0.27177,-0.24595 0.80345,-0.44719 1.18151,-0.44719 0.7286,0 2.24058,1.23859 2.24058,1.83544 0,0.19106 0.16913,0.34738 0.37585,0.34738 0.4552,0 0.59033,-0.61262 0.95373,-4.324 0.1545,-1.57783 0.3976,-3.48283 0.54023,-4.23333 0.51471,-2.70846 0.56978,-7.07341 0.13406,-10.62496 -0.75564,-6.15929 -0.74905,-6.01366 -0.1779,-3.92826 0.28509,1.04091 0.76908,2.38406 1.07554,2.98476 0.30646,0.60071 0.77982,2.32669 1.05191,3.83552 0.27855,1.54465 0.91807,3.76651 1.46364,5.08502 0.71909,1.73792 1.0284,2.95569 1.19959,4.72296 0.12686,1.30968 0.35063,2.77535 0.49726,3.25702 0.37263,1.22412 0.82804,6.43583 0.90606,10.36902 l 0.0656,3.30729 h 1.31502 c 1.29747,0 1.31426,-0.0106 1.25777,-0.79375 -0.0315,-0.43656 -0.19637,-1.56766 -0.36639,-2.51354 -0.17003,-0.94589 -0.33562,-4.30159 -0.36798,-7.45712 -0.0324,-3.15553 -0.12959,-6.7274 -0.21606,-7.9375 -0.0865,-1.2101 -0.0722,-2.97408 0.0316,-3.91997 l 0.18885,-1.71979 0.48618,1.45521 c 0.2674,0.80037 0.7201,1.93146 1.006,2.51354 0.2859,0.58209 0.57323,1.71318 0.63852,2.51354 0.1301,1.5951 0.47916,2.67302 1.20977,3.73591 0.30036,0.43697 0.58075,1.61055 0.75856,3.175 0.36071,3.17356 0.36432,10.77208 0.006,11.71566 -0.4101,1.07866 -0.33817,1.47179 0.32063,1.75225 0.73877,0.3145 2.78659,0.15761 3.18848,-0.24427 z M 139.45068,242.9013 c -0.35322,-2.58548 -0.28066,-4.126 0.24422,-5.18557 0.71532,-1.44402 1.2083,-1.48129 0.7037,-0.0532 -0.2211,0.62575 -0.4801,2.38789 -0.57556,3.91586 -0.16694,2.67201 -0.18116,2.72254 -0.37236,1.32291 z m -11.81694,7.27605 c 0.078,-12.66032 0.23797,-23.31641 0.35549,-23.68021 0.11751,-0.3638 0.45745,-1.43537 0.75541,-2.38125 2.73477,-8.68161 10.33302,-15.31969 19.36721,-16.91985 2.22294,-0.39372 6.37005,-0.34462 8.7103,0.10315 2.53107,0.48427 3.93743,0.9646 6.28361,2.14612 6.31527,3.18032 10.67669,8.39552 12.86884,15.38804 l 0.72896,2.32525 0.13272,23.01875 0.13271,23.01875 h 12.96458 12.96458 l 0.0745,-3.10173 c 0.0743,-3.093 0.0727,-3.10217 -0.57022,-3.26353 -0.35458,-0.089 -0.92388,-0.45898 -1.2651,-0.82218 l -0.62041,-0.66038 v -30.64903 -30.64903 l 0.6282,-0.6687 c 0.3455,-0.36778 0.88128,-0.7048 1.19062,-0.74893 0.51631,-0.0737 0.56864,-0.26547 0.63805,-2.33877 l 0.0756,-2.25852 -0.95985,-0.34709 c -1.11056,-0.40158 -1.70494,-1.51316 -1.70494,-3.18849 v -1.05817 l 2.97656,-0.0748 2.97657,-0.0748 0.13229,-2.60359 c 0.12443,-2.4489 0.1764,-2.64148 0.87465,-3.24115 0.40829,-0.35065 0.97384,-0.63755 1.25677,-0.63755 0.42019,0 0.51441,-0.1861 0.51441,-1.01604 v -1.01604 l -4.57187,-2.144 c -2.51453,-1.1792 -6.1757,-2.90818 -8.13594,-3.84219 -3.39131,-1.61587 -4.67247,-2.22244 -10.17865,-4.8191 -1.30968,-0.61764 -4.26843,-2.03002 -6.57499,-3.13864 -2.30656,-1.10861 -4.2303,-2.01566 -4.27498,-2.01566 -0.0447,0 -1.72937,-0.78746 -3.74375,-1.74993 -4.30882,-2.05872 -8.1181,-3.86003 -10.1343,-4.79225 -0.79457,-0.36738 -3.16073,-1.48646 -5.25812,-2.48685 -2.09738,-1.00038 -3.90123,-1.81888 -4.00855,-1.81888 -0.19885,0 -3.1782,1.37712 -8.8678,4.09891 -1.74625,0.83537 -5.13953,2.44189 -7.54063,3.57005 -2.40109,1.12817 -5.49672,2.58978 -6.87916,3.24803 -5.35266,2.54866 -8.48618,4.03133 -12.43542,5.884 -2.25557,1.05813 -6.83948,3.22751 -10.18646,4.82084 -3.34698,1.59334 -7.186744,3.41226 -8.532814,4.04206 l -2.447396,1.14509 v 1.0153 c 0,0.82921 0.09429,1.0153 0.514416,1.0153 0.28292,0 0.84847,0.2869 1.25677,0.63755 0.69825,0.59967 0.75022,0.79225 0.87465,3.24115 l 0.13229,2.60359 2.976564,0.0748 2.97656,0.0748 v 1.11995 c 0,1.54197 -0.77495,2.90063 -1.82648,3.2022 l -0.83875,0.24055 0.0758,2.27405 c 0.0697,2.08905 0.12161,2.28058 0.63828,2.35429 0.30934,0.0441 0.84512,0.38115 1.19063,0.74893 l 0.62819,0.6687 v 30.64903 30.64903 l -0.6204,0.66038 c -0.34122,0.3632 -0.90677,0.73225 -1.25677,0.82009 -0.6252,0.15691 -0.63637,0.21228 -0.63637,3.15329 0,1.64646 0.0805,3.07406 0.17888,3.17245 0.0984,0.0984 5.96221,0.14799 13.03073,0.11024 l 12.85185,-0.0686 z m -13.92977,16.53521 c -0.30732,-0.12059 -0.81609,-0.54639 -1.1306,-0.94622 l -0.57184,-0.72697 0.0723,-30.50996 0.0723,-30.50996 0.71156,-0.7115 c 0.92902,-0.92893 2.32655,-0.96843 3.25934,-0.0921 l 0.6593,0.61938 v 30.76309 30.76308 l -0.59531,0.64997 c -0.68004,0.74248 -1.66279,1.02068 -2.477,0.70121 z m 75.39054,-0.12205 c -0.46149,-0.19954 -0.9675,-0.6028 -1.12448,-0.89611 -0.19944,-0.37266 -0.28542,-9.73947 -0.28542,-31.09532 v -30.56201 l 0.60275,-0.70074 c 0.85824,-0.99777 2.33005,-1.01417 3.30734,-0.0369 l 0.72012,0.72013 v 30.67964 30.67964 l -0.66146,0.64028 c -0.88577,0.85742 -1.55281,1.00636 -2.55885,0.57134 z m -64.10842,-54.56208 c -0.004,-4.1015 0.098,-7.73543 0.2273,-8.07541 0.46275,-1.21714 0.8675,-1.26304 11.76284,-1.33386 9.84935,-0.064 10.20251,-0.0495 8.46666,0.34833 -2.72336,0.62414 -4.47292,1.25546 -7.10307,2.56312 -3.00721,1.49512 -5.31262,3.19364 -7.68732,5.66366 -2.40926,2.50596 -3.14032,3.49665 -4.52328,6.1297 l -1.1354,2.16171 -0.008,-7.45725 z m 53.53592,5.69079 c -1.7629,-3.5613 -4.7971,-7.11456 -8.37637,-9.80932 -2.56863,-1.93387 -8.02351,-4.37789 -10.77144,-4.82607 -0.65485,-0.10681 -1.33116,-0.27008 -1.50291,-0.36284 -0.37882,-0.20458 19.38088,-0.11657 20.21736,0.09 1.2926,0.31928 1.40785,1.11093 1.33186,9.14835 l -0.0703,7.43296 z m -65.2448,-20.99998 c -1.4933,-0.81718 -1.72212,-2.61244 -0.49003,-3.84454 1.2652,-1.2652 3.05637,-0.99835 3.87085,0.57668 1.07239,2.07377 -1.3262,4.39222 -3.38082,3.26786 z m 11.00186,0.15681 c -1.76531,-0.74357 -1.88767,-3.70525 -0.18512,-4.48098 1.81456,-0.82677 3.53025,0.24715 3.53025,2.20974 0,0.81425 -0.16137,1.26002 -0.60803,1.67964 -0.71019,0.66719 -1.93112,0.93108 -2.7371,0.5916 z m 10.276,-0.40622 c -1.3589,-1.14343 -1.26362,-3.05738 0.19511,-3.91906 1.12869,-0.66674 2.06021,-0.5644 2.94854,0.32393 1.25328,1.25329 0.9987,3.0562 -0.54422,3.85408 -1.08505,0.5611 -1.69736,0.5001 -2.59943,-0.25895 z m 11.14997,0.23377 c -0.99177,-0.48914 -1.52893,-1.61594 -1.28966,-2.7053 0.23345,-1.06292 0.95026,-1.6492 2.22551,-1.82025 0.9324,-0.12506 1.16724,-0.0418 1.87262,0.66353 1.34152,1.34152 1.02608,3.20723 -0.66148,3.91233 -1.0993,0.45932 -1.1144,0.45896 -2.14699,-0.0503 z m 10.89103,0.11769 c -1.64416,-0.90418 -1.93748,-2.73425 -0.63347,-3.95237 0.98525,-0.92036 2.07886,-0.99904 3.16238,-0.22751 1.52418,1.08532 1.14533,3.59366 -0.6366,4.21485 -0.96655,0.33694 -1.22471,0.33217 -1.89231,-0.035 z m 10.65613,-0.10533 c -1.51173,-0.82039 -1.72262,-2.60866 -0.4569,-3.87438 0.70539,-0.70539 0.94021,-0.78859 1.87267,-0.66352 2.33839,0.31364 2.98475,3.03648 1.03381,4.35502 -1.02055,0.68973 -1.45573,0.72222 -2.44958,0.18288 z m 11.172,0.23539 c -1.01922,-0.39779 -1.5875,-1.24229 -1.5875,-2.3591 0,-0.92694 0.14091,-1.23956 0.81405,-1.80597 1.10263,-0.9278 2.18908,-0.89754 3.17505,0.0884 0.97597,0.97598 1.04844,2.32413 0.17808,3.31318 -0.59977,0.68156 -1.84517,1.05015 -2.57968,0.76347 z m 10.71562,-0.0731 c -1.22604,-0.5018 -1.97231,-2.20286 -1.43064,-3.26103 0.8517,-1.66384 2.69751,-2.00955 3.96453,-0.74253 1.25329,1.25329 0.99871,3.0562 -0.54422,3.85408 -0.85636,0.44284 -1.20832,0.46928 -1.98967,0.14948 z m -72.76041,-12.07678 c 2.03729,-0.9578 6.74026,-3.14755 10.45104,-4.86612 8.31576,-3.85126 9.06521,-4.20038 17.59479,-8.19634 3.78354,-1.77252 7.17682,-3.28216 7.54062,-3.35474 0.45625,-0.091 1.72859,0.37571 4.10105,1.50439 1.89177,0.89999 5.70177,2.68154 8.46666,3.95899 2.7649,1.27745 6.33677,2.94226 7.9375,3.69956 1.60073,0.75731 4.04151,1.89179 5.42396,2.52107 1.38245,0.62928 5.07339,2.34359 8.20208,3.80958 l 5.68854,2.66543 -39.5552,-1.9e-4 -39.55521,-1.9e-4 z m 37.99157,-0.73586 c 2.18093,-0.77958 3.87721,-2.83476 4.31077,-5.22285 0.45578,-2.51039 -1.04702,-5.35348 -3.50979,-6.64004 -2.56357,-1.33923 -5.35689,-0.91529 -7.45878,1.13202 -1.51424,1.47491 -2.26023,3.51629 -1.95462,5.34871 0.22867,1.37106 1.182,3.29999 2.01393,4.07487 1.59953,1.48987 4.48722,2.06198 6.59849,1.30729 z"
         id="path956"
         sodipodi:nodetypes="ssssscsccsscccsssssssscssssssscsssssscsssssscsssscccssscccssscsssssssssssssssscsssssscssssssssssscssscssscssccscsssssssssssssssssscsssssccssssscsccssssscsssssscccccssscccscscsscccsssscssssssssssssssscsssscccsscccscccsssssccsscccsscccssscsscsscccsccccssssscccsssscscsssssssssssssssssscssscsssccsssssssssssssssssssssssssscccssssssss" /><path
         style="fill:none;stroke:#000000;stroke-width:2;stroke-dasharray:none;stroke-opacity:1"
         d="m 70.166066,154.68517 -0.153759,98.83952 c 7.429231,86.16151 147.130643,93.19768 163.849853,5.47936 0.42043,-35.49126 1.02014,-68.78798 0.34638,-104.2727 -48.91698,-27.66882 -114.43331,-27.75522 -164.042474,-0.0462 z"
         id="path1176"
         sodipodi:nodetypes="ccccc" /></g></g></svg>
